<svg width="20" height="20" viewBox="0 0 20 20" fill="none" xmlns="http://www.w3.org/2000/svg">
<rect x="1.25" y="1.25" width="17.5" height="17.5" rx="4" fill="#625AFA" stroke="#625AFA"/>
<path d="M8.61919 13.147L8.61952 13.1473C8.95264 13.4753 9.48549 13.4736 9.81646 13.1434L9.81649 13.1434L16.1472 6.82432L16.1477 6.82378C16.4803 6.48842 16.4803 5.94521 16.1477 5.60985C15.8146 5.27392 15.274 5.2738 14.9407 5.6095C14.9406 5.60962 14.9405 5.60973 14.9404 5.60985L9.21857 11.3109L6.30614 8.44504C5.97282 8.10966 5.43248 8.10989 5.09943 8.44571C4.76686 8.78107 4.76686 9.32428 5.09943 9.65964L5.10037 9.66057L8.61919 13.147Z" fill="white" stroke="white" stroke-width="0.3"/>
</svg>
