<svg width="18" height="18" viewBox="0 0 18 18" fill="none" xmlns="http://www.w3.org/2000/svg">
<path d="M1 15.75C0.783333 15.75 0.604333 15.6793 0.463 15.538C0.321 15.396 0.25 15.2167 0.25 15C0.25 14.7833 0.321 14.604 0.463 14.462C0.604333 14.3207 0.783333 14.25 1 14.25H5C5.21667 14.25 5.396 14.3207 5.538 14.462C5.67933 14.604 5.75 14.7833 5.75 15C5.75 15.2167 5.67933 15.396 5.538 15.538C5.396 15.6793 5.21667 15.75 5 15.75H1ZM1 3.75C0.783333 3.75 0.604333 3.679 0.463 3.537C0.321 3.39567 0.25 3.21667 0.25 3C0.25 2.78333 0.321 2.60433 0.463 2.463C0.604333 2.321 0.783333 2.25 1 2.25H9C9.21667 2.25 9.396 2.321 9.538 2.463C9.67933 2.60433 9.75 2.78333 9.75 3C9.75 3.21667 9.67933 3.39567 9.538 3.537C9.396 3.679 9.21667 3.75 9 3.75H1ZM9 17.75C8.78333 17.75 8.60433 17.6793 8.463 17.538C8.321 17.396 8.25 17.2167 8.25 17V13C8.25 12.7833 8.321 12.604 8.463 12.462C8.60433 12.3207 8.78333 12.25 9 12.25C9.21667 12.25 9.396 12.3207 9.538 12.462C9.67933 12.604 9.75 12.7833 9.75 13V14.25H17C17.2167 14.25 17.396 14.3207 17.538 14.462C17.6793 14.604 17.75 14.7833 17.75 15C17.75 15.2167 17.6793 15.396 17.538 15.538C17.396 15.6793 17.2167 15.75 17 15.75H9.75V17C9.75 17.2167 9.67933 17.396 9.538 17.538C9.396 17.6793 9.21667 17.75 9 17.75ZM5 11.75C4.78333 11.75 4.60433 11.679 4.463 11.537C4.321 11.3957 4.25 11.2167 4.25 11V9.75H1C0.783333 9.75 0.604333 9.679 0.463 9.537C0.321 9.39567 0.25 9.21667 0.25 9C0.25 8.78333 0.321 8.604 0.463 8.462C0.604333 8.32067 0.783333 8.25 1 8.25H4.25V7C4.25 6.78333 4.321 6.604 4.463 6.462C4.60433 6.32067 4.78333 6.25 5 6.25C5.21667 6.25 5.396 6.32067 5.538 6.462C5.67933 6.604 5.75 6.78333 5.75 7V11C5.75 11.2167 5.67933 11.3957 5.538 11.537C5.396 11.679 5.21667 11.75 5 11.75ZM9 9.75C8.78333 9.75 8.60433 9.679 8.463 9.537C8.321 9.39567 8.25 9.21667 8.25 9C8.25 8.78333 8.321 8.604 8.463 8.462C8.60433 8.32067 8.78333 8.25 9 8.25H17C17.2167 8.25 17.396 8.32067 17.538 8.462C17.6793 8.604 17.75 8.78333 17.75 9C17.75 9.21667 17.6793 9.39567 17.538 9.537C17.396 9.679 17.2167 9.75 17 9.75H9ZM13 5.75C12.7833 5.75 12.6043 5.679 12.463 5.537C12.321 5.39567 12.25 5.21667 12.25 5V1C12.25 0.783333 12.321 0.604 12.463 0.462C12.6043 0.320667 12.7833 0.25 13 0.25C13.2167 0.25 13.396 0.320667 13.538 0.462C13.6793 0.604 13.75 0.783333 13.75 1V2.25H17C17.2167 2.25 17.396 2.321 17.538 2.463C17.6793 2.60433 17.75 2.78333 17.75 3C17.75 3.21667 17.6793 3.39567 17.538 3.537C17.396 3.679 17.2167 3.75 17 3.75H13.75V5C13.75 5.21667 13.6793 5.39567 13.538 5.537C13.396 5.679 13.2167 5.75 13 5.75Z" fill="#545969"/>
</svg>
