<svg width="80" height="28" viewBox="0 0 80 28" fill="none" xmlns="http://www.w3.org/2000/svg">
<rect x="1" y="1" width="78" height="26" fill="white" stroke="#1A1B25" stroke-width="2"/>
<path d="M21.5005 10.9999C21.4725 10.7946 21.4859 10.5239 21.3365 10.3839C21.1872 10.2346 21.0005 10.1179 20.7765 10.0339C20.5619 9.94994 20.3192 9.88927 20.0485 9.85194C19.7872 9.81461 19.5259 9.79594 19.2645 9.79594C18.4339 9.79594 17.7899 10.0059 17.3325 10.4259C16.9779 10.7433 16.7212 11.1679 16.5625 11.6999C16.4039 12.2226 16.3245 12.7919 16.3245 13.4079C16.3245 13.9959 16.4039 14.5139 16.5625 14.9619C16.7305 15.4099 16.9545 15.7879 17.2345 16.0959C17.5239 16.3946 17.8645 16.6233 18.2565 16.7819C18.6485 16.9313 19.0779 17.0059 19.5445 17.0059C19.9459 17.0059 20.4079 16.9639 20.9305 16.8799C21.4625 16.7866 21.9619 16.6139 22.4285 16.3619L22.5965 16.6699L22.2605 17.2859C21.7752 17.5846 21.2852 17.8039 20.7905 17.9439C20.3052 18.0839 19.8059 18.1539 19.2925 18.1539C18.5925 18.1539 17.9579 18.0419 17.3885 17.8179C16.8192 17.5939 16.3292 17.2766 15.9185 16.8659C15.5172 16.4459 15.2045 15.9513 14.9805 15.3819C14.7565 14.8033 14.6445 14.1639 14.6445 13.4639C14.6445 12.8106 14.7425 12.1946 14.9385 11.6159C15.1439 11.0279 15.4425 10.5193 15.8345 10.0899C16.2359 9.66061 16.7259 9.31994 17.3045 9.06794C17.8925 8.81594 18.5739 8.68994 19.3485 8.68994C19.5352 8.68994 19.7545 8.69927 20.0065 8.71794C20.2585 8.72727 20.5245 8.75527 20.8045 8.80194C21.0845 8.83927 21.3645 8.89994 21.6445 8.98394C21.9339 9.05861 22.2092 9.15661 22.4705 9.27794L22.5125 9.40394L22.5005 10.9999H21.5005Z" fill="#1A1B25"/>
<path d="M27.474 17.9019C27.502 17.8179 27.5207 17.6966 27.53 17.5379C27.5487 17.3793 27.572 17.2346 27.6 17.1039L27.586 17.0619C27.474 17.2019 27.3433 17.3373 27.194 17.4679C27.054 17.5986 26.8953 17.7153 26.718 17.8179C26.5407 17.9206 26.3493 17.9999 26.144 18.0559C25.948 18.1213 25.738 18.1539 25.514 18.1539C25.178 18.1539 24.884 18.1026 24.632 17.9999C24.38 17.8973 24.17 17.7619 24.002 17.5939C23.834 17.4259 23.7033 17.2299 23.61 17.0059C23.526 16.7819 23.484 16.5486 23.484 16.3059C23.484 15.9419 23.5633 15.6246 23.722 15.3539C23.8807 15.0833 24.0907 14.8639 24.352 14.6959C24.5947 14.5373 24.8793 14.4159 25.206 14.3319C25.5327 14.2386 25.85 14.1686 26.158 14.1219C26.466 14.0753 26.746 14.0473 26.998 14.0379C27.25 14.0193 27.418 14.0099 27.502 14.0099H27.698C27.6887 13.7206 27.67 13.4966 27.642 13.3379C27.614 13.1699 27.5767 13.0299 27.53 12.9179C27.446 12.7313 27.306 12.6006 27.11 12.5259C26.9233 12.4419 26.6993 12.3999 26.438 12.3999C26.2793 12.3999 26.1067 12.4139 25.92 12.4419C25.7427 12.4606 25.5747 12.5026 25.416 12.5679C25.2573 12.6333 25.1173 12.7266 24.996 12.8479C24.884 12.9599 24.8187 13.1093 24.8 13.2959L24.744 13.3379H24.296L24.17 12.0219L24.212 11.9379C24.268 11.8819 24.3753 11.8213 24.534 11.7559C24.6927 11.6906 24.884 11.6299 25.108 11.5739C25.332 11.5086 25.5747 11.4573 25.836 11.4199C26.1067 11.3733 26.3773 11.3499 26.648 11.3499C27.012 11.3499 27.3527 11.3966 27.67 11.4899C27.9873 11.5739 28.258 11.7046 28.482 11.8819C28.7153 12.0593 28.8973 12.2833 29.028 12.5539C29.1587 12.8153 29.224 13.1233 29.224 13.4779C29.224 13.8606 29.2193 14.1873 29.21 14.4579C29.21 14.7286 29.2053 14.9806 29.196 15.2139C29.1867 15.4473 29.1773 15.6759 29.168 15.8999C29.168 16.1146 29.168 16.3573 29.168 16.6279C29.1867 16.8426 29.21 16.9966 29.238 17.0899C29.266 17.1833 29.3127 17.2579 29.378 17.3139C29.4527 17.3886 29.5647 17.4353 29.714 17.4539C29.8727 17.4633 30.0173 17.4679 30.148 17.4679L30.19 17.5239L30.218 17.9999L30.204 18.0559C30.0453 18.0373 29.8633 18.0233 29.658 18.0139C29.4527 18.0046 29.2613 17.9999 29.084 17.9999C28.8227 17.9999 28.5613 17.9999 28.3 17.9999C28.0387 18.0093 27.7913 18.0233 27.558 18.0419L27.474 17.9019ZM27.474 16.3899C27.502 16.3433 27.53 16.2873 27.558 16.2219C27.5953 16.1566 27.6187 16.0773 27.628 15.9839L27.698 14.7939H27.572C27.2827 14.7939 26.998 14.8126 26.718 14.8499C26.438 14.8873 26.186 14.9573 25.962 15.0599C25.738 15.1626 25.556 15.3073 25.416 15.4939C25.276 15.6806 25.206 15.9233 25.206 16.2219C25.206 16.4739 25.2667 16.6746 25.388 16.8239C25.5187 16.9733 25.6913 17.0479 25.906 17.0479C26.0647 17.0479 26.2233 17.0293 26.382 16.9919C26.55 16.9453 26.704 16.8893 26.844 16.8239C26.984 16.7586 27.11 16.6886 27.222 16.6139C27.334 16.5299 27.418 16.4553 27.474 16.3899Z" fill="#1A1B25"/>
<path d="M33.1944 12.5959C33.4931 12.1479 33.8478 11.8306 34.2584 11.6439C34.6691 11.4479 35.0938 11.3499 35.5324 11.3499C35.8591 11.3499 36.1998 11.4106 36.5544 11.5319C36.9184 11.6439 37.2451 11.8353 37.5344 12.1059C37.8331 12.3673 38.0758 12.7173 38.2624 13.1559C38.4584 13.5853 38.5564 14.1173 38.5564 14.7519C38.5564 15.1813 38.4911 15.6013 38.3604 16.0119C38.2391 16.4133 38.0478 16.7726 37.7864 17.0899C37.5344 17.4073 37.2124 17.6639 36.8204 17.8599C36.4284 18.0559 35.9664 18.1539 35.4344 18.1539C34.9304 18.1539 34.4824 18.0279 34.0904 17.7759C33.7078 17.5239 33.3811 17.1926 33.1104 16.7819L33.0684 16.8099C33.0871 16.9686 33.0964 17.1413 33.0964 17.3279C33.1058 17.5053 33.1104 17.7666 33.1104 18.1119C33.1104 18.4199 33.1104 18.6813 33.1104 18.8959C33.1104 19.1106 33.1104 19.2973 33.1104 19.4559C33.1198 19.6146 33.1244 19.7499 33.1244 19.8619C33.1338 19.9833 33.1431 20.1046 33.1524 20.2259C33.1711 20.4126 33.1898 20.5573 33.2084 20.6599C33.2364 20.7626 33.2878 20.8419 33.3624 20.8979C33.4371 20.9726 33.5538 21.0193 33.7124 21.0379C33.8711 21.0566 34.0251 21.0659 34.1744 21.0659L34.2164 21.1079L34.2444 21.5979L34.2304 21.6399C34.1651 21.6399 34.0624 21.6353 33.9224 21.6259C33.7824 21.6259 33.6378 21.6213 33.4884 21.6119C33.3391 21.6119 33.1944 21.6073 33.0544 21.5979C32.9144 21.5979 32.8118 21.5979 32.7464 21.5979H32.0184C31.9531 21.5979 31.8551 21.5979 31.7244 21.5979C31.5938 21.6073 31.4538 21.6119 31.3044 21.6119C31.1551 21.6213 31.0151 21.6259 30.8844 21.6259C30.7538 21.6353 30.6558 21.6399 30.5904 21.6399L30.5624 21.5979L30.5904 21.1219L30.6604 21.0659C30.8004 21.0659 30.9358 21.0566 31.0664 21.0379C31.2064 21.0286 31.3138 20.9819 31.3884 20.8979C31.4631 20.8419 31.5098 20.7626 31.5284 20.6599C31.5564 20.5573 31.5798 20.4126 31.5984 20.2259C31.6078 20.0673 31.6124 19.9179 31.6124 19.7779C31.6218 19.6473 31.6264 19.4979 31.6264 19.3299C31.6358 19.1619 31.6404 18.9566 31.6404 18.7139C31.6498 18.4806 31.6544 18.1726 31.6544 17.7899V15.3959C31.6544 15.0133 31.6544 14.7006 31.6544 14.4579C31.6544 14.2059 31.6498 13.9913 31.6404 13.8139C31.6404 13.6366 31.6358 13.4779 31.6264 13.3379C31.6171 13.1979 31.6078 13.0439 31.5984 12.8759C31.5891 12.7733 31.5658 12.6846 31.5284 12.6099C31.4911 12.5259 31.4584 12.4699 31.4304 12.4419C31.3464 12.3299 31.2344 12.2646 31.0944 12.2459C30.9544 12.2179 30.8051 12.2039 30.6464 12.2039L30.5904 12.1479V11.6719L30.6464 11.6299H30.8984C31.0104 11.6299 31.1411 11.6299 31.2904 11.6299C31.4398 11.6299 31.5938 11.6299 31.7524 11.6299C31.9204 11.6206 32.0791 11.6159 32.2284 11.6159C32.3871 11.6066 32.5271 11.5926 32.6484 11.5739L33.1384 11.5039L33.2224 11.7699C33.1944 11.8353 33.1758 11.9566 33.1664 12.1339C33.1571 12.3019 33.1524 12.4466 33.1524 12.5679L33.1944 12.5959ZM36.9324 14.7099C36.9324 14.4299 36.8951 14.1593 36.8204 13.8979C36.7551 13.6273 36.6524 13.3893 36.5124 13.1839C36.3724 12.9693 36.1904 12.8013 35.9664 12.6799C35.7518 12.5493 35.4951 12.4839 35.1964 12.4839C34.8791 12.4839 34.5944 12.5399 34.3424 12.6519C34.0998 12.7546 33.8898 12.8853 33.7124 13.0439C33.5444 13.1933 33.4091 13.3519 33.3064 13.5199C33.2131 13.6879 33.1618 13.8326 33.1524 13.9539V15.5079C33.1711 15.6293 33.2224 15.7786 33.3064 15.9559C33.3998 16.1239 33.5258 16.2919 33.6844 16.4599C33.8524 16.6186 34.0578 16.7539 34.3004 16.8659C34.5431 16.9779 34.8324 17.0339 35.1684 17.0339C35.4764 17.0339 35.7424 16.9686 35.9664 16.8379C36.1904 16.6979 36.3724 16.5206 36.5124 16.3059C36.6618 16.0913 36.7691 15.8439 36.8344 15.5639C36.8998 15.2839 36.9324 14.9993 36.9324 14.7099Z" fill="#1A1B25"/>
<path d="M44.2407 8.68994C44.9594 8.68994 45.5987 8.81594 46.1587 9.06794C46.7188 9.31994 47.1901 9.66528 47.5728 10.1039C47.9554 10.5333 48.2448 11.0326 48.4408 11.6019C48.6461 12.1713 48.7487 12.7686 48.7487 13.3939C48.7487 14.0099 48.6507 14.6073 48.4548 15.1859C48.2588 15.7553 47.9647 16.2593 47.5728 16.6979C47.1901 17.1366 46.7094 17.4913 46.1307 17.7619C45.5614 18.0233 44.8988 18.1539 44.1427 18.1539C43.4147 18.1539 42.7754 18.0279 42.2248 17.7759C41.6741 17.5239 41.2121 17.1879 40.8387 16.7679C40.4747 16.3386 40.1994 15.8439 40.0127 15.2839C39.8261 14.7146 39.7327 14.1173 39.7327 13.4919C39.7327 12.8293 39.8354 12.2086 40.0407 11.6299C40.2461 11.0419 40.5401 10.5333 40.9227 10.1039C41.3054 9.66528 41.7768 9.31994 42.3368 9.06794C42.8967 8.81594 43.5314 8.68994 44.2407 8.68994ZM44.2267 16.9919C44.6841 16.9919 45.0901 16.8986 45.4448 16.7119C45.8088 16.5159 46.1121 16.2593 46.3547 15.9419C46.5974 15.6153 46.7841 15.2373 46.9147 14.8079C47.0454 14.3693 47.1107 13.9026 47.1107 13.4079C47.1107 12.9039 47.0407 12.4373 46.9007 12.0079C46.7701 11.5693 46.5741 11.1913 46.3127 10.8739C46.0607 10.5566 45.7528 10.3093 45.3888 10.1319C45.0248 9.94527 44.6141 9.85194 44.1567 9.85194C43.7087 9.85194 43.3121 9.94061 42.9668 10.1179C42.6214 10.2953 42.3321 10.5426 42.0988 10.8599C41.8654 11.1773 41.6881 11.5553 41.5667 11.9939C41.4454 12.4233 41.3848 12.8899 41.3848 13.3939C41.3848 13.9539 41.4548 14.4579 41.5947 14.9059C41.7347 15.3446 41.9307 15.7179 42.1828 16.0259C42.4348 16.3339 42.7334 16.5719 43.0788 16.7399C43.4241 16.9079 43.8067 16.9919 44.2267 16.9919Z" fill="#1A1B25"/>
<path d="M52.393 12.7779C52.6077 12.3673 52.9017 12.0266 53.275 11.7559C53.6483 11.4853 54.087 11.3499 54.591 11.3499C54.8803 11.3499 55.165 11.3873 55.445 11.4619C55.725 11.5366 55.977 11.6533 56.201 11.8119C56.4343 11.9706 56.6257 12.1759 56.775 12.4279C56.9337 12.6706 57.0364 12.9599 57.083 13.2959C57.111 13.5386 57.125 13.7953 57.125 14.0659C57.1343 14.3366 57.139 14.6073 57.139 14.8779C57.1483 15.1953 57.153 15.4893 57.153 15.7599C57.153 16.0213 57.153 16.3106 57.153 16.6279C57.153 16.8426 57.1763 17.0059 57.223 17.1179C57.279 17.2206 57.3443 17.2906 57.419 17.3279C57.5217 17.3839 57.629 17.4213 57.741 17.4399C57.8624 17.4586 57.9977 17.4679 58.147 17.4679L58.189 17.5239L58.217 17.9999L58.189 18.0559C57.993 18.0373 57.7737 18.0233 57.531 18.0139C57.2977 18.0046 57.069 17.9999 56.845 17.9999C56.621 17.9999 56.397 17.9999 56.173 17.9999C55.949 18.0093 55.739 18.0233 55.543 18.0419L55.445 17.7619C55.473 17.6406 55.4963 17.4586 55.515 17.2159C55.543 16.9733 55.5617 16.7773 55.571 16.6279C55.5897 16.2733 55.6037 15.9419 55.613 15.6339C55.6223 15.3259 55.627 15.0506 55.627 14.8079C55.627 14.5933 55.6223 14.3599 55.613 14.1079C55.6037 13.8559 55.571 13.6366 55.515 13.4499C55.4403 13.1513 55.2864 12.9319 55.053 12.7919C54.829 12.6426 54.5677 12.5679 54.269 12.5679C53.989 12.5679 53.7323 12.6193 53.499 12.7219C53.2657 12.8246 53.065 12.9506 52.897 13.0999C52.7383 13.2399 52.6124 13.3893 52.519 13.5479C52.4257 13.7066 52.379 13.8466 52.379 13.9679V15.4099C52.379 15.5966 52.379 15.7506 52.379 15.8719C52.379 15.9839 52.379 16.0819 52.379 16.1659C52.3883 16.2499 52.393 16.3293 52.393 16.4039C52.4023 16.4693 52.4117 16.5439 52.421 16.6279C52.4397 16.8239 52.477 16.9733 52.533 17.0759C52.5984 17.1693 52.6684 17.2486 52.743 17.3139C52.8177 17.3886 52.9063 17.4353 53.009 17.4539C53.1117 17.4633 53.233 17.4679 53.373 17.4679L53.443 17.5379L53.471 17.9999L53.443 18.0559C53.3777 18.0559 53.2797 18.0513 53.149 18.0419C53.0183 18.0326 52.8783 18.0233 52.729 18.0139C52.5797 18.0139 52.4397 18.0093 52.309 17.9999C52.1783 17.9999 52.0803 17.9999 52.015 17.9999H51.245C51.1797 17.9999 51.077 17.9999 50.937 17.9999C50.8064 18.0093 50.6663 18.0139 50.517 18.0139C50.377 18.0233 50.237 18.0326 50.097 18.0419C49.9664 18.0513 49.8683 18.0559 49.803 18.0559L49.789 17.9999L49.817 17.5239L49.859 17.4679C50.0084 17.4679 50.139 17.4633 50.251 17.4539C50.3723 17.4353 50.4703 17.3886 50.545 17.3139C50.6103 17.2486 50.671 17.1646 50.727 17.0619C50.783 16.9593 50.8204 16.8146 50.839 16.6279C50.8484 16.5626 50.853 16.4973 50.853 16.4319C50.8624 16.3666 50.867 16.2966 50.867 16.2219C50.8764 16.1473 50.881 16.0586 50.881 15.9559C50.881 15.8533 50.881 15.7273 50.881 15.5779V14.1359C50.881 13.9586 50.881 13.8093 50.881 13.6879C50.881 13.5666 50.8764 13.4593 50.867 13.3659C50.867 13.2726 50.8624 13.1886 50.853 13.1139C50.853 13.0393 50.8484 12.9599 50.839 12.8759C50.8204 12.7826 50.7924 12.6939 50.755 12.6099C50.7177 12.5259 50.685 12.4699 50.657 12.4419C50.5637 12.3206 50.447 12.2506 50.307 12.2319C50.167 12.2133 50.0224 12.2039 49.873 12.2039L49.817 12.1479V11.6719L49.873 11.6299H50.587C50.8017 11.6299 51.0303 11.6299 51.273 11.6299C51.525 11.6206 51.7443 11.6019 51.931 11.5739L52.421 11.5039L52.505 11.7699C52.4304 11.8726 52.3837 12.0173 52.365 12.2039C52.3557 12.3813 52.351 12.5633 52.351 12.7499L52.393 12.7779Z" fill="#1A1B25"/>
<path d="M64.9044 14.4299L64.5684 14.6819C64.0644 14.6819 63.5651 14.6866 63.0704 14.6959C62.5851 14.7053 62.0858 14.7099 61.5724 14.7099H60.4244C60.4151 14.7753 60.4104 14.8406 60.4104 14.9059C60.4104 14.9619 60.4104 15.0179 60.4104 15.0739C60.4104 15.3166 60.4524 15.5593 60.5364 15.8019C60.6204 16.0446 60.7511 16.2639 60.9284 16.4599C61.1151 16.6466 61.3484 16.8006 61.6284 16.9219C61.9084 17.0339 62.2491 17.0899 62.6504 17.0899C62.9398 17.0899 63.2431 17.0526 63.5604 16.9779C63.8871 16.8939 64.1904 16.7866 64.4704 16.6559L64.7084 16.7539V17.2579L64.5684 17.4119C64.3444 17.5893 64.0131 17.7573 63.5744 17.9159C63.1451 18.0746 62.6784 18.1539 62.1744 18.1539C61.6798 18.1539 61.2271 18.0746 60.8164 17.9159C60.4151 17.7479 60.0651 17.5146 59.7664 17.2159C59.4771 16.9173 59.2484 16.5626 59.0804 16.1519C58.9218 15.7413 58.8424 15.2839 58.8424 14.7799C58.8424 14.2666 58.9264 13.7999 59.0944 13.3799C59.2624 12.9599 59.4911 12.6006 59.7804 12.3019C60.0791 12.0033 60.4244 11.7699 60.8164 11.6019C61.2178 11.4339 61.6471 11.3499 62.1044 11.3499C62.3471 11.3499 62.6178 11.3826 62.9164 11.4479C63.2244 11.5133 63.5184 11.6393 63.7984 11.8259C64.0784 12.0033 64.3304 12.2599 64.5544 12.5959C64.7784 12.9226 64.9324 13.3566 65.0164 13.8979L64.9044 14.4299ZM62.1184 12.3999C61.6611 12.3999 61.2924 12.5399 61.0124 12.8199C60.7418 13.0906 60.5691 13.4079 60.4944 13.7719H61.1944C61.5211 13.7719 61.8431 13.7673 62.1604 13.7579C62.4778 13.7393 62.7998 13.7299 63.1264 13.7299C63.2478 13.7299 63.3364 13.6973 63.3924 13.6319C63.4484 13.5573 63.4764 13.4826 63.4764 13.4079C63.4764 13.1279 63.3411 12.8899 63.0704 12.6939C62.7998 12.4979 62.4824 12.3999 62.1184 12.3999Z" fill="#1A1B25"/>
</svg>
