<svg width="16" height="16" viewBox="0 0 16 16" fill="none" xmlns="http://www.w3.org/2000/svg">
<path fill-rule="evenodd" clip-rule="evenodd" d="M12.7065 11.2923C12.6727 11.2586 12.6372 11.2277 12.6002 11.1998C13.479 10.0299 13.9997 8.5757 13.9997 6.99986C13.9997 3.13394 10.8658 0 6.99984 0C3.13394 0 0 3.13394 0 6.99986C0 10.8658 3.13394 13.9997 6.99984 13.9997C8.5757 13.9997 10.0299 13.479 11.1999 12.6002C11.2278 12.6372 11.2586 12.6727 11.2923 12.7065L14.2929 15.7071C14.6834 16.0976 15.3166 16.0976 15.7071 15.7071C16.0976 15.3166 16.0976 14.6834 15.7071 14.2929L12.7065 11.2923ZM11.9997 6.99986C11.9997 9.76122 9.76121 11.9998 6.99984 11.9998C4.23848 11.9998 1.99996 9.76122 1.99996 6.99986C1.99996 4.23849 4.23848 1.99996 6.99984 1.99996C9.76121 1.99996 11.9997 4.23849 11.9997 6.99986Z" fill="#545969"/>
</svg>
