<svg width="24" height="24" viewBox="0 0 24 24" fill="none" xmlns="http://www.w3.org/2000/svg">
<path d="M4 18.75C3.78333 18.75 3.60433 18.6793 3.463 18.538C3.321 18.396 3.25 18.2167 3.25 18C3.25 17.7833 3.321 17.604 3.463 17.462C3.60433 17.3207 3.78333 17.25 4 17.25H8C8.21667 17.25 8.396 17.3207 8.538 17.462C8.67933 17.604 8.75 17.7833 8.75 18C8.75 18.2167 8.67933 18.396 8.538 18.538C8.396 18.6793 8.21667 18.75 8 18.75H4ZM4 6.75C3.78333 6.75 3.60433 6.679 3.463 6.537C3.321 6.39567 3.25 6.21667 3.25 6C3.25 5.78333 3.321 5.60433 3.463 5.463C3.60433 5.321 3.78333 5.25 4 5.25H12C12.2167 5.25 12.396 5.321 12.538 5.463C12.6793 5.60433 12.75 5.78333 12.75 6C12.75 6.21667 12.6793 6.39567 12.538 6.537C12.396 6.679 12.2167 6.75 12 6.75H4ZM12 20.75C11.7833 20.75 11.6043 20.6793 11.463 20.538C11.321 20.396 11.25 20.2167 11.25 20V16C11.25 15.7833 11.321 15.604 11.463 15.462C11.6043 15.3207 11.7833 15.25 12 15.25C12.2167 15.25 12.396 15.3207 12.538 15.462C12.6793 15.604 12.75 15.7833 12.75 16V17.25H20C20.2167 17.25 20.396 17.3207 20.538 17.462C20.6793 17.604 20.75 17.7833 20.75 18C20.75 18.2167 20.6793 18.396 20.538 18.538C20.396 18.6793 20.2167 18.75 20 18.75H12.75V20C12.75 20.2167 12.6793 20.396 12.538 20.538C12.396 20.6793 12.2167 20.75 12 20.75ZM8 14.75C7.78333 14.75 7.60433 14.679 7.463 14.537C7.321 14.3957 7.25 14.2167 7.25 14V12.75H4C3.78333 12.75 3.60433 12.679 3.463 12.537C3.321 12.3957 3.25 12.2167 3.25 12C3.25 11.7833 3.321 11.604 3.463 11.462C3.60433 11.3207 3.78333 11.25 4 11.25H7.25V10C7.25 9.78333 7.321 9.604 7.463 9.462C7.60433 9.32067 7.78333 9.25 8 9.25C8.21667 9.25 8.396 9.32067 8.538 9.462C8.67933 9.604 8.75 9.78333 8.75 10V14C8.75 14.2167 8.67933 14.3957 8.538 14.537C8.396 14.679 8.21667 14.75 8 14.75ZM12 12.75C11.7833 12.75 11.6043 12.679 11.463 12.537C11.321 12.3957 11.25 12.2167 11.25 12C11.25 11.7833 11.321 11.604 11.463 11.462C11.6043 11.3207 11.7833 11.25 12 11.25H20C20.2167 11.25 20.396 11.3207 20.538 11.462C20.6793 11.604 20.75 11.7833 20.75 12C20.75 12.2167 20.6793 12.3957 20.538 12.537C20.396 12.679 20.2167 12.75 20 12.75H12ZM16 8.75C15.7833 8.75 15.6043 8.679 15.463 8.537C15.321 8.39567 15.25 8.21667 15.25 8V4C15.25 3.78333 15.321 3.604 15.463 3.462C15.6043 3.32067 15.7833 3.25 16 3.25C16.2167 3.25 16.396 3.32067 16.538 3.462C16.6793 3.604 16.75 3.78333 16.75 4V5.25H20C20.2167 5.25 20.396 5.321 20.538 5.463C20.6793 5.60433 20.75 5.78333 20.75 6C20.75 6.21667 20.6793 6.39567 20.538 6.537C20.396 6.679 20.2167 6.75 20 6.75H16.75V8C16.75 8.21667 16.6793 8.39567 16.538 8.537C16.396 8.679 16.2167 8.75 16 8.75Z" fill="#545969"/>
</svg>
